<svg xmlns="http://www.w3.org/2000/svg" viewBox="0 0 1200 650" role="img" aria-label="Illustrated comparison of wide, portrait, square and vertical format safe areas for a consistent blue-cup campaign"><title>Illustrated comparison of wide, portrait, square and vertical format safe areas for a consistent blue-cup campaign</title>
<rect width="1200" height="650" fill="#f6f3ed"/>
<text x="45" y="68" font-family="Arial,sans-serif" fill="#182744" font-size="33" font-weight="bold">DO NOT SIMPLY CROP THE MASTER.</text>
<text x="45" y="104" font-family="Arial,sans-serif" fill="#526484" font-size="19">Recompose intentionally for each destination.</text>
<rect x="45" y="160" width="463" height="280" rx="18" fill="#f6f3ed" stroke="#90a8cc" stroke-width="3"/><text x="63" y="195" fill="#182744" font-family="Arial,sans-serif" font-size="22" font-weight="bold">16:9  WEB HERO</text><rect x="61" y="214" width="431" height="209" rx="9" fill="#dbc3a6"/><line x1="67" x2="486" y1="387" y2="387" stroke="#b09777" stroke-width="3"/><g transform="translate(224.5 288) scale(0.8)"><ellipse cx="78" cy="155" rx="111" ry="15" fill="#d9b892"/><path d="M125 45 C217 17 218 143 126 132" fill="none" stroke="#3967d7" stroke-width="18"/><rect x="0" y="33" width="142" height="122" rx="21" fill="#3967d7"/><ellipse cx="71" cy="34" rx="72" ry="14" fill="#254b9e"/><ellipse cx="71" cy="34" rx="58" ry="7" fill="#bfcfe7"/><path d="M25 63 Q5 120 40 142" fill="none" stroke="#7292e7" stroke-width="6" stroke-linecap="round"/></g><rect x="70" y="227" width="413" height="184" fill="none" stroke="#3967d7" stroke-dasharray="7 6" stroke-width="3"/>
<rect x="538" y="160" width="201" height="344" rx="18" fill="#f6f3ed" stroke="#90a8cc" stroke-width="3"/><text x="556" y="195" fill="#182744" font-family="Arial,sans-serif" font-size="22" font-weight="bold">4:5  FEED</text><rect x="554" y="214" width="169" height="273" rx="9" fill="#dbc3a6"/><line x1="560" x2="717" y1="451" y2="451" stroke="#b09777" stroke-width="3"/><g transform="translate(602.75 323.75) scale(0.55)"><ellipse cx="78" cy="155" rx="111" ry="15" fill="#d9b892"/><path d="M125 45 C217 17 218 143 126 132" fill="none" stroke="#3967d7" stroke-width="18"/><rect x="0" y="33" width="142" height="122" rx="21" fill="#3967d7"/><ellipse cx="71" cy="34" rx="72" ry="14" fill="#254b9e"/><ellipse cx="71" cy="34" rx="58" ry="7" fill="#bfcfe7"/><path d="M25 63 Q5 120 40 142" fill="none" stroke="#7292e7" stroke-width="6" stroke-linecap="round"/></g><rect x="563" y="227" width="151" height="248" fill="none" stroke="#3967d7" stroke-dasharray="7 6" stroke-width="3"/>
<rect x="771" y="160" width="183" height="325" rx="18" fill="#f6f3ed" stroke="#90a8cc" stroke-width="3"/><text x="789" y="195" fill="#182744" font-family="Arial,sans-serif" font-size="22" font-weight="bold">1:1  SQUARE</text><rect x="787" y="214" width="151" height="254" rx="9" fill="#dbc3a6"/><line x1="793" x2="932" y1="432" y2="432" stroke="#b09777" stroke-width="3"/><g transform="translate(831.95 315.45) scale(0.47)"><ellipse cx="78" cy="155" rx="111" ry="15" fill="#d9b892"/><path d="M125 45 C217 17 218 143 126 132" fill="none" stroke="#3967d7" stroke-width="18"/><rect x="0" y="33" width="142" height="122" rx="21" fill="#3967d7"/><ellipse cx="71" cy="34" rx="72" ry="14" fill="#254b9e"/><ellipse cx="71" cy="34" rx="58" ry="7" fill="#bfcfe7"/><path d="M25 63 Q5 120 40 142" fill="none" stroke="#7292e7" stroke-width="6" stroke-linecap="round"/></g><rect x="796" y="227" width="133" height="229" fill="none" stroke="#3967d7" stroke-dasharray="7 6" stroke-width="3"/>
<rect x="983" y="160" width="170" height="402" rx="18" fill="#f6f3ed" stroke="#90a8cc" stroke-width="3"/><text x="1001" y="195" fill="#182744" font-family="Arial,sans-serif" font-size="22" font-weight="bold">9:16  STORY</text><rect x="999" y="214" width="138" height="331" rx="9" fill="#dbc3a6"/><line x1="1005" x2="1131" y1="509" y2="509" stroke="#b09777" stroke-width="3"/><g transform="translate(1040.7 354.7) scale(0.42)"><ellipse cx="78" cy="155" rx="111" ry="15" fill="#d9b892"/><path d="M125 45 C217 17 218 143 126 132" fill="none" stroke="#3967d7" stroke-width="18"/><rect x="0" y="33" width="142" height="122" rx="21" fill="#3967d7"/><ellipse cx="71" cy="34" rx="72" ry="14" fill="#254b9e"/><ellipse cx="71" cy="34" rx="58" ry="7" fill="#bfcfe7"/><path d="M25 63 Q5 120 40 142" fill="none" stroke="#7292e7" stroke-width="6" stroke-linecap="round"/></g><rect x="1008" y="227" width="120" height="306" fill="none" stroke="#3967d7" stroke-dasharray="7 6" stroke-width="3"/>
<text x="45" y="615" font-family="Arial,sans-serif" fill="#526484" font-size="19">Keep vital details away from copy areas, interface overlays, and the edges.</text>
</svg>