<svg xmlns="http://www.w3.org/2000/svg" viewBox="0 0 960 540" role="img" aria-labelledby="title"><title id="title">Cinematic Portrait visual example</title><defs><linearGradient id="bg" x2=".9" y2="1"><stop stop-color="#222946"/><stop offset=".53" stop-color="#b15760"/><stop offset="1" stop-color="#f2b281"/></linearGradient><radialGradient id="light"><stop stop-color="#f2b281" stop-opacity=".65"/><stop offset="1" stop-color="#f2b281" stop-opacity="0"/></radialGradient><pattern id="grain" width="32" height="32" patternUnits="userSpaceOnUse"><circle cx="2" cy="4" r="1" fill="white" opacity=".08"/></pattern></defs><rect width="960" height="540" fill="url(#bg)"/><circle cx="750" cy="155" r="270" fill="url(#light)"/><path d="M0 472q260-122 490 0t470-28v96H0Z" fill="#222946" opacity=".45"/><g><circle cx="500" cy="245" r="184" fill="#d77f78"/><path d="M288 473q66-142 196-134 147 0 211 134" fill="#252841"/><ellipse cx="497" cy="246" rx="96" ry="121" fill="#d69a79"/><path d="M400 224q0-126 100-119 109-4 100 126l-68-64-132 57" fill="#242438"/><path d="M204 80h550" stroke="#efb57b" stroke-width="8" opacity=".65"/></g><rect width="960" height="540" fill="url(#grain)"/><path d="M38 40h52M38 48V40m884 0h-52m52 8v-8M38 492h52m-52-8v8m884 0h-52m52-8v8" fill="none" stroke="white" stroke-width="2" opacity=".58"/><text x="39" y="78" font-family="Arial,sans-serif" letter-spacing="5" font-size="14" font-weight="700" fill="white" opacity=".84">CREATIVE / 11</text><text x="39" y="515" font-family="Arial,sans-serif" letter-spacing="3" font-size="13" fill="white" opacity=".83">IMAGE · AIWA CREATOR</text></svg>