<svg xmlns="http://www.w3.org/2000/svg" viewBox="0 0 960 540" role="img" aria-labelledby="title"><title id="title">Facebook Ad visual example</title><defs><linearGradient id="bg" x2=".9" y2="1"><stop stop-color="#135f90"/><stop offset=".53" stop-color="#58b7df"/><stop offset="1" stop-color="#f0cd77"/></linearGradient><radialGradient id="light"><stop stop-color="#f0cd77" stop-opacity=".65"/><stop offset="1" stop-color="#f0cd77" stop-opacity="0"/></radialGradient><pattern id="grain" width="32" height="32" patternUnits="userSpaceOnUse"><circle cx="2" cy="4" r="1" fill="white" opacity=".08"/></pattern></defs><rect width="960" height="540" fill="url(#bg)"/><circle cx="750" cy="155" r="270" fill="url(#light)"/><path d="M0 472q260-122 490 0t470-28v96H0Z" fill="#135f90" opacity=".45"/><g><rect x="155" y="108" width="650" height="335" rx="30" fill="#d8e9dc"/><path d="M202 325h280v-23H202zm0-50h222v-23H202zm0-50h150v-23H202z" fill="#24516b"/><rect x="559" y="159" width="185" height="220" rx="32" fill="#ffd78a"/><circle cx="651" cy="265" r="62" fill="#f18158"/><path d="m626 260 20 20 39-45" fill="none" stroke="#fff5dc" stroke-width="12"/></g><rect width="960" height="540" fill="url(#grain)"/><path d="M38 40h52M38 48V40m884 0h-52m52 8v-8M38 492h52m-52-8v8m884 0h-52m52-8v8" fill="none" stroke="white" stroke-width="2" opacity=".58"/><text x="39" y="78" font-family="Arial,sans-serif" letter-spacing="5" font-size="14" font-weight="700" fill="white" opacity=".84">CREATIVE / 04</text><text x="39" y="515" font-family="Arial,sans-serif" letter-spacing="3" font-size="13" fill="white" opacity=".83">IMAGE · AIWA CREATOR</text></svg>