<svg xmlns="http://www.w3.org/2000/svg" viewBox="0 0 960 540" role="img" aria-labelledby="title"><title id="title">Luxury Product Ad visual example</title><defs><linearGradient id="bg" x2=".9" y2="1"><stop stop-color="#20151e"/><stop offset=".53" stop-color="#765744"/><stop offset="1" stop-color="#eec88d"/></linearGradient><radialGradient id="light"><stop stop-color="#eec88d" stop-opacity=".65"/><stop offset="1" stop-color="#eec88d" stop-opacity="0"/></radialGradient><pattern id="grain" width="32" height="32" patternUnits="userSpaceOnUse"><circle cx="2" cy="4" r="1" fill="white" opacity=".08"/></pattern></defs><rect width="960" height="540" fill="url(#bg)"/><circle cx="750" cy="155" r="270" fill="url(#light)"/><path d="M0 472q260-122 490 0t470-28v96H0Z" fill="#20151e" opacity=".45"/><g><ellipse cx="480" cy="421" rx="250" ry="34" fill="#09090d" opacity=".6"/><rect x="350" y="200" width="260" height="218" rx="20" fill="#19151a" stroke="#d9ad73" stroke-width="5"/><rect x="433" y="149" width="94" height="58" rx="6" fill="#d9ad73"/><circle cx="479" cy="315" r="61" fill="none" stroke="#d9ad73" stroke-width="3"/><path d="M431 311h97m-48-51v106" stroke="#d9ad73" stroke-width="3"/><path d="M240 110q200-90 477 20" fill="none" stroke="#edce96" opacity=".5" stroke-width="7"/></g><rect width="960" height="540" fill="url(#grain)"/><path d="M38 40h52M38 48V40m884 0h-52m52 8v-8M38 492h52m-52-8v8m884 0h-52m52-8v8" fill="none" stroke="white" stroke-width="2" opacity=".58"/><text x="39" y="78" font-family="Arial,sans-serif" letter-spacing="5" font-size="14" font-weight="700" fill="white" opacity=".84">CREATIVE / 08</text><text x="39" y="515" font-family="Arial,sans-serif" letter-spacing="3" font-size="13" fill="white" opacity=".83">IMAGE · AIWA CREATOR</text></svg>