<svg xmlns="http://www.w3.org/2000/svg" viewBox="0 0 960 540" role="img" aria-labelledby="title"><title id="title">YouTube Thumbnail visual example</title><defs><linearGradient id="bg" x2=".9" y2="1"><stop stop-color="#3e155d"/><stop offset=".53" stop-color="#ff6c56"/><stop offset="1" stop-color="#ffcf80"/></linearGradient><radialGradient id="light"><stop stop-color="#ffcf80" stop-opacity=".65"/><stop offset="1" stop-color="#ffcf80" stop-opacity="0"/></radialGradient><pattern id="grain" width="32" height="32" patternUnits="userSpaceOnUse"><circle cx="2" cy="4" r="1" fill="white" opacity=".08"/></pattern></defs><rect width="960" height="540" fill="url(#bg)"/><circle cx="750" cy="155" r="270" fill="url(#light)"/><path d="M0 472q260-122 490 0t470-28v96H0Z" fill="#3e155d" opacity=".45"/><g><circle cx="302" cy="247" r="132" fill="#161424" opacity=".45"/><path d="M225 337q14-124 104-126 95 6 110 126Z" fill="#120f22"/><circle cx="326" cy="170" r="66" fill="#f6c0a0"/><path d="M255 171q-7-86 69-91 84-2 77 91-30-31-44-50-43 35-102 50Z" fill="#21182c"/><path d="M550 124h292v258H550z" rx="18" fill="#ffcc83" opacity=".9"/><path d="M625 188v140l125-70Z" fill="#2d163b"/></g><rect width="960" height="540" fill="url(#grain)"/><path d="M38 40h52M38 48V40m884 0h-52m52 8v-8M38 492h52m-52-8v8m884 0h-52m52-8v8" fill="none" stroke="white" stroke-width="2" opacity=".58"/><text x="39" y="78" font-family="Arial,sans-serif" letter-spacing="5" font-size="14" font-weight="700" fill="white" opacity=".84">CREATIVE / 01</text><text x="39" y="515" font-family="Arial,sans-serif" letter-spacing="3" font-size="13" fill="white" opacity=".83">IMAGE · AIWA CREATOR</text></svg>